<svg xmlns="http://www.w3.org/2000/svg" xmlns:xlink="http://www.w3.org/1999/xlink" width="500" zoomAndPan="magnify" viewBox="0 0 375 187.499995" height="250" preserveAspectRatio="xMidYMid meet" version="1.0"><defs><g/><clipPath id="187820c11a"><path d="M 28.332031 43 L 76 43 L 76 92 L 28.332031 92 Z M 28.332031 43 " clip-rule="nonzero"/></clipPath><clipPath id="1d50a15ae7"><path d="M 29 97 L 89 97 L 89 143.84375 L 29 143.84375 Z M 29 97 " clip-rule="nonzero"/></clipPath><clipPath id="d041501f15"><path d="M 80 95 L 127.816406 95 L 127.816406 143.84375 L 80 143.84375 Z M 80 95 " clip-rule="nonzero"/></clipPath></defs><g clip-path="url(#187820c11a)"><path fill="#9823c6" d="M 59.171875 74.089844 C 60.335938 72.902344 61.1875 71.789062 61.734375 70.746094 L 75.4375 45.277344 C 76.007812 44.234375 76.121094 43.546875 75.78125 43.222656 C 75.460938 42.878906 74.777344 42.992188 73.730469 43.570312 L 48.816406 57.578125 C 47.769531 58.179688 46.6875 59.054688 45.570312 60.1875 C 44.40625 61.371094 43.554688 62.488281 43.007812 63.53125 L 29.269531 88.929688 C 28.675781 89.972656 28.554688 90.671875 28.894531 91.019531 C 29.210938 91.347656 29.894531 91.21875 30.945312 90.636719 L 55.921875 76.699219 C 56.96875 76.097656 58.054688 75.226562 59.167969 74.089844 Z M 59.171875 74.089844 " fill-opacity="1" fill-rule="evenodd"/></g><path fill="#ffc34e" d="M 117 83.628906 C 116.820312 82.28125 116.308594 81.175781 115.464844 80.320312 L 90.894531 55.289062 C 90.054688 54.429688 89.140625 54.070312 88.164062 54.207031 C 87.160156 54.347656 86.375 54.949219 85.804688 56.019531 L 72.066406 81.433594 C 71.496094 82.476562 71.316406 83.683594 71.519531 85.054688 C 71.703125 86.402344 72.203125 87.503906 73.023438 88.363281 L 97.589844 113.375 C 98.414062 114.230469 99.320312 114.582031 100.324219 114.417969 C 101.324219 114.277344 102.113281 113.6875 102.683594 112.640625 L 116.421875 87.246094 C 116.988281 86.175781 117.183594 84.96875 117 83.625 Z M 117 83.628906 " fill-opacity="1" fill-rule="evenodd"/><g clip-path="url(#1d50a15ae7)"><path fill="#ff3e3c" d="M 88.214844 126.617188 C 88.375 125.597656 88.035156 124.667969 87.191406 123.832031 L 62.640625 98.785156 C 61.796875 97.949219 60.714844 97.4375 59.394531 97.253906 C 58.050781 97.042969 56.867188 97.230469 55.839844 97.808594 L 30.894531 111.8125 C 29.871094 112.394531 29.292969 113.195312 29.152344 114.214844 C 28.996094 115.214844 29.335938 116.144531 30.179688 117.003906 L 54.746094 142.050781 C 55.589844 142.90625 56.671875 143.429688 57.992188 143.617188 C 59.3125 143.804688 60.5 143.605469 61.546875 143.027344 L 86.457031 129.023438 C 87.484375 128.441406 88.0625 127.640625 88.199219 126.617188 Z M 88.214844 126.617188 " fill-opacity="1" fill-rule="evenodd"/></g><path fill="#26c4ff" d="M 126.816406 72.488281 C 126.953125 71.464844 126.613281 70.523438 125.792969 69.664062 L 101.222656 44.65625 C 100.402344 43.792969 99.332031 43.269531 98.011719 43.085938 C 96.667969 42.902344 95.484375 43.097656 94.457031 43.679688 L 69.511719 57.648438 C 68.464844 58.230469 67.875 59.027344 67.738281 60.050781 C 67.597656 61.074219 67.953125 62.011719 68.796875 62.871094 L 93.363281 87.917969 C 94.207031 88.777344 95.289062 89.296875 96.609375 89.484375 C 97.929688 89.671875 99.105469 89.472656 100.128906 88.894531 L 125.039062 74.890625 C 126.085938 74.308594 126.679688 73.507812 126.816406 72.488281 Z M 126.816406 72.488281 " fill-opacity="1" fill-rule="evenodd"/><g clip-path="url(#d041501f15)"><path fill="#fe0fa6" d="M 127.089844 95.578125 C 126.773438 95.234375 126.089844 95.347656 125.039062 95.925781 L 100.097656 109.859375 C 99.050781 110.464844 97.953125 111.335938 96.816406 112.472656 C 95.675781 113.65625 94.820312 114.773438 94.253906 115.816406 L 80.585938 141.28125 C 80.015625 142.324219 79.890625 143.023438 80.207031 143.375 C 80.550781 143.71875 81.234375 143.59375 82.257812 142.988281 L 107.167969 128.984375 C 108.195312 128.402344 109.289062 127.535156 110.449219 126.375 C 111.550781 125.214844 112.417969 124.097656 113.011719 123.03125 L 126.75 97.636719 C 127.320312 96.59375 127.433594 95.90625 127.089844 95.582031 Z M 127.089844 95.578125 " fill-opacity="1" fill-rule="evenodd"/></g><path fill="#98d843" d="M 84.054688 105.269531 C 84.625 104.226562 84.816406 103.019531 84.636719 101.648438 C 84.453125 100.300781 83.941406 99.199219 83.097656 98.339844 L 58.527344 73.292969 C 57.683594 72.433594 56.773438 72.085938 55.796875 72.25 C 54.792969 72.390625 54.007812 72.980469 53.4375 74.027344 L 39.699219 99.453125 C 39.132812 100.523438 38.949219 101.730469 39.152344 103.078125 C 39.335938 104.421875 39.835938 105.527344 40.65625 106.386719 L 65.226562 131.394531 C 66.046875 132.253906 66.953125 132.613281 67.957031 132.476562 C 68.960938 132.339844 69.746094 131.734375 70.316406 130.664062 Z M 84.054688 105.269531 " fill-opacity="1" fill-rule="evenodd"/><path stroke-linecap="butt" transform="matrix(0.855295, 0, 0, 0.855295, 142.148359, 44.123655)" fill="none" stroke-linejoin="miter" d="M 32.065953 3.984115 C 32.253206 3.984115 32.495264 4.057189 32.78756 4.207904 C 33.084424 4.354053 33.230573 4.728558 33.230573 5.345121 L 33.230573 8.473609 C 33.230573 9.140411 33.084424 9.546886 32.78756 9.697601 C 32.495264 9.839183 32.253206 9.912257 32.065953 9.912257 L 21.762495 9.912257 L 21.762495 35.638933 C 21.762495 36.255496 21.62548 36.634569 21.342318 36.785284 C 21.063723 36.926865 20.830799 36.99994 20.648113 36.99994 L 16.962435 36.99994 C 16.798018 36.99994 16.569661 36.926865 16.277364 36.785284 C 15.985068 36.634569 15.834352 36.255496 15.834352 35.638933 L 15.834352 9.912257 L 5.535461 9.912257 C 5.352775 9.912257 5.115284 9.839183 4.822988 9.697601 C 4.526124 9.546886 4.379975 9.140411 4.379975 8.473609 L 4.379975 5.345121 C 4.379975 4.728558 4.526124 4.354053 4.822988 4.207904 C 5.115284 4.057189 5.352775 3.984115 5.535461 3.984115 Z M 68.963844 13.561398 L 68.963844 13.794322 C 68.963844 13.771487 68.963844 13.748651 68.963844 13.73495 C 68.963844 13.725815 68.963844 13.70298 68.963844 13.680144 C 68.963844 13.652741 68.963844 13.634473 68.963844 13.620771 C 68.963844 13.60707 68.963844 13.588801 68.963844 13.561398 Z M 69.726555 35.278129 C 69.886405 35.492785 69.941211 35.812484 69.881838 36.237228 C 69.804197 36.771583 69.498199 37.041044 68.963844 37.041044 L 64.561125 37.041044 C 64.209455 37.041044 63.926293 36.958835 63.716205 36.803553 C 63.633996 36.74418 63.556355 36.661972 63.492415 36.561495 C 63.428475 36.45645 63.355401 36.346839 63.277759 36.237228 L 56.020581 23.371606 L 47.566812 23.371606 L 47.566812 35.638933 C 47.566812 36.255496 47.425231 36.639136 47.146636 36.803553 C 46.86804 36.958835 46.630549 37.041044 46.443297 37.041044 L 42.794155 37.041044 C 42.61147 37.041044 42.373979 36.958835 42.077115 36.803553 C 41.784818 36.639136 41.63867 36.255496 41.63867 35.638933 L 41.63867 18.80447 C 41.63867 18.192474 41.784818 17.813402 42.077115 17.667254 C 42.373979 17.521105 42.61147 17.443464 42.794155 17.443464 L 60.226913 17.443464 C 61.245384 17.443464 61.948723 17.151167 62.350631 16.562007 C 62.779942 15.977413 62.994597 15.013748 62.994597 13.680144 C 62.994597 12.341973 62.779942 11.378307 62.350631 10.793714 C 61.948723 10.204554 61.245384 9.912257 60.226913 9.912257 L 42.794155 9.912257 C 42.61147 9.912257 42.373979 9.839183 42.077115 9.697601 C 41.784818 9.546886 41.63867 9.163247 41.63867 8.55125 L 41.63867 5.381658 C 41.63867 4.742259 41.784818 4.354053 42.077115 4.207904 C 42.373979 4.057189 42.61147 3.984115 42.794155 3.984115 L 61.272787 3.984115 C 64.02677 3.984115 65.999772 4.838169 67.200929 6.546278 C 68.34728 8.204148 68.936441 10.579059 68.963844 13.680144 C 68.936441 16.776662 68.34728 19.151573 67.200929 20.809443 C 66.182458 22.197852 64.689004 23.01537 62.711435 23.257428 Z M 106.021584 3.984115 C 106.208837 3.984115 106.446328 4.057189 106.724923 4.207904 C 107.003518 4.354053 107.145099 4.728558 107.145099 5.345121 L 107.145099 24.458585 C 107.145099 25.5821 107.103995 26.623407 107.01722 27.587073 C 106.939578 28.546171 106.807131 29.413927 106.619879 30.19034 C 106.245374 31.84821 105.669914 33.154411 104.898069 34.11351 C 104.126223 35.131981 103.084916 35.876424 101.774148 36.355973 C 100.572991 36.785284 99.065836 36.99994 97.248116 36.99994 L 88.228023 36.99994 C 86.41487 36.99994 84.907715 36.785284 83.706558 36.355973 C 83.085428 36.118482 82.509969 35.817051 81.975614 35.442546 C 81.441259 35.068041 80.989112 34.625029 80.614607 34.11351 C 79.787956 33.095038 79.198795 31.788838 78.85626 30.19034 C 78.66444 29.413927 78.531993 28.546171 78.454352 27.587073 C 78.376711 26.623407 78.335606 25.5821 78.335606 24.458585 L 78.335606 5.345121 C 78.335606 4.728558 78.481755 4.354053 78.774051 4.207904 C 79.070915 4.057189 79.308406 3.984115 79.491092 3.984115 L 83.140233 3.984115 C 83.327486 3.984115 83.564977 4.057189 83.843572 4.207904 C 84.122168 4.354053 84.263749 4.728558 84.263749 5.345121 L 84.263749 25.093416 C 84.263749 25.687144 84.282017 26.244335 84.323121 26.769555 C 84.364226 27.281075 84.409897 27.728654 84.460136 28.107726 C 84.624552 28.824766 84.852909 29.423061 85.145206 29.907178 C 85.464905 30.304518 85.866813 30.596815 86.346363 30.788635 C 86.615824 30.866276 86.921822 30.934783 87.268924 30.994156 C 87.611459 31.044394 87.999666 31.071797 88.433544 31.071797 L 97.088266 31.071797 C 97.51301 31.071797 97.896649 31.044394 98.243752 30.994156 C 98.595421 30.934783 98.905986 30.866276 99.17088 30.788635 C 99.650429 30.596815 100.04777 30.304518 100.36747 29.907178 C 100.504484 29.692522 100.632364 29.432196 100.746542 29.126197 C 100.869855 28.820199 100.961197 28.477664 101.011436 28.107726 C 101.066242 27.728654 101.111913 27.281075 101.14845 26.769555 C 101.189554 26.244335 101.207823 25.687144 101.207823 25.093416 L 101.207823 5.345121 C 101.207823 4.728558 101.349404 4.354053 101.627999 4.207904 C 101.915729 4.057189 102.148653 3.984115 102.331338 3.984115 Z M 139.631137 29.829536 C 139.818389 29.829536 140.060448 29.902611 140.352744 30.053326 C 140.645041 30.199474 140.791189 30.573979 140.791189 31.190543 L 140.791189 35.602396 C 140.791189 36.214392 140.645041 36.593465 140.352744 36.74418 C 140.060448 36.890328 139.818389 36.958835 139.631137 36.958835 L 125.404509 36.958835 C 124.523051 36.958835 123.710101 36.908597 122.961091 36.803553 C 122.216648 36.693942 121.536144 36.515823 120.924148 36.278332 C 119.61338 35.826186 118.572073 35.090877 117.79566 34.076973 C 116.991844 33.031099 116.416385 31.724898 116.07385 30.153803 C 115.936836 29.482434 115.822658 28.742558 115.731315 27.943309 C 115.639972 27.139493 115.580599 26.271738 115.553196 25.340042 L 115.553196 25.143655 L 115.630838 20.087836 C 115.708479 19.790972 115.859195 19.457571 116.07385 19.087633 C 116.658443 18.046326 117.567303 17.484568 118.791296 17.406927 L 139.471287 17.365823 C 139.635704 17.365823 139.864061 17.438897 140.156357 17.589612 C 140.448654 17.735761 140.59937 18.114833 140.59937 18.726829 L 140.59937 21.896421 C 140.59937 22.508418 140.448654 22.896624 140.156357 23.061041 C 139.864061 23.216324 139.635704 23.293965 139.471287 23.293965 L 121.55898 23.293965 C 121.55898 23.293965 121.554413 23.440113 121.540712 23.73241 C 121.52701 24.029274 121.513309 24.362675 121.499607 24.741747 C 121.490473 25.116252 121.481339 25.445086 121.481339 25.74195 C 121.481339 26.034246 121.481339 26.180395 121.481339 26.180395 C 121.508742 26.285439 121.522443 26.399617 121.522443 26.52293 C 121.522443 26.641676 121.536144 26.755854 121.55898 26.865465 C 121.664024 27.609908 121.892381 28.208203 122.244051 28.664917 C 122.56375 29.062258 122.965658 29.354554 123.449774 29.546374 C 123.742071 29.624015 124.057203 29.692522 124.386037 29.751895 C 124.719438 29.802134 125.103078 29.829536 125.532388 29.829536 Z M 139.667674 3.906473 C 139.832091 3.906473 140.060448 3.988682 140.352744 4.148531 C 140.645041 4.308381 140.791189 4.692021 140.791189 5.304017 L 140.791189 8.473609 C 140.791189 9.085605 140.645041 9.473812 140.352744 9.638229 C 140.060448 9.793511 139.832091 9.871153 139.667674 9.871153 L 116.631041 9.834616 C 116.471191 9.834616 116.256535 9.761541 115.973373 9.61996 C 115.694778 9.469245 115.553196 9.085605 115.553196 8.473609 L 115.553196 5.345121 C 115.553196 4.705722 115.694778 4.308381 115.973373 4.148531 C 116.256535 3.988682 116.471191 3.906473 116.631041 3.906473 Z M 176.570132 11.43768 C 176.97204 13.118386 177.172993 15.095956 177.172993 17.365823 L 177.172993 23.654769 C 177.172993 25.924635 176.97204 27.902205 176.570132 29.582911 C 176.387446 30.41413 176.127119 31.181409 175.784584 31.893882 C 175.451183 32.597221 175.076678 33.218351 174.651934 33.752706 C 173.76591 34.871654 172.624126 35.702873 171.235717 36.237228 C 169.879278 36.771583 168.267079 37.041044 166.394553 37.041044 L 152.688578 37.041044 C 152.076582 37.041044 151.496556 36.885761 150.948499 36.579763 C 150.400443 36.273765 149.966565 35.853589 149.646866 35.319234 C 149.43221 34.944729 149.286062 34.533686 149.208421 34.076973 L 149.244958 6.70156 C 149.299763 6.546278 149.354569 6.381861 149.423076 6.212877 C 149.487016 6.039326 149.56009 5.870342 149.646866 5.705925 C 150.286265 4.660051 151.204259 4.10286 152.405416 4.020652 L 152.405416 3.984115 L 166.394553 3.984115 C 168.235109 3.984115 169.847308 4.249008 171.235717 4.783363 C 172.60129 5.322285 173.738507 6.135236 174.651934 7.231348 C 175.076678 7.793106 175.451183 8.423371 175.784584 9.117575 C 176.127119 9.81178 176.387446 10.583626 176.570132 11.43768 Z M 155.095459 30.866276 C 155.095459 30.953052 155.100026 31.007857 155.113727 31.030693 C 155.127429 31.058096 155.136563 31.071797 155.136563 31.071797 L 166.275807 31.071797 C 166.727954 31.071797 167.152697 31.044394 167.550038 30.994156 C 167.951946 30.934783 168.317317 30.852575 168.637017 30.747531 C 169.249013 30.505472 169.742263 30.144669 170.121336 29.665119 C 170.518677 29.135332 170.801839 28.441127 170.961689 27.577938 C 171.03933 27.130359 171.107837 26.632541 171.158076 26.084485 C 171.212881 25.536429 171.235717 24.924432 171.235717 24.253063 L 171.235717 16.767528 C 171.235717 16.096159 171.212881 15.479595 171.158076 14.922405 C 171.107837 14.360647 171.03933 13.849128 170.961689 13.392414 C 170.801839 12.53836 170.518677 11.862424 170.121336 11.360039 C 169.801636 10.875923 169.308386 10.515119 168.637017 10.273061 C 167.997618 10.031002 167.207503 9.912257 166.275807 9.912257 L 155.1731 9.912257 C 155.122862 9.912257 155.095459 9.994465 155.095459 10.154315 Z M 212.709878 3.984115 C 212.86516 3.984115 213.093517 4.066323 213.385814 4.226173 C 213.67811 4.386022 213.824259 4.769662 213.824259 5.381658 L 213.824259 8.514713 C 213.824259 9.154112 213.67811 9.546886 213.385814 9.697601 C 213.093517 9.839183 212.86516 9.912257 212.709878 9.912257 L 195.679028 9.912257 C 195.249717 9.912257 194.861511 9.93966 194.514408 9.989898 C 194.167306 10.040137 193.861308 10.108644 193.596414 10.195419 C 193.112298 10.378105 192.71039 10.670401 192.39069 11.076877 C 192.070991 11.556426 191.856335 12.145586 191.746724 12.835224 C 191.591441 13.63904 191.509233 14.639242 191.509233 15.840399 L 191.509233 25.143655 C 191.509233 26.344812 191.591441 27.345014 191.746724 28.14883 C 191.856335 28.865871 192.070991 29.450464 192.39069 29.907178 C 192.71039 30.336488 193.112298 30.633352 193.596414 30.788635 C 194.075963 30.975887 194.770168 31.071797 195.679028 31.071797 L 206.900481 31.071797 C 207.34806 31.071797 207.66776 30.925649 207.859579 30.633352 C 207.937221 30.496338 208.014862 30.277116 208.092503 29.984819 C 208.179279 29.692522 208.220383 29.240376 208.220383 28.623812 C 208.220383 28.623812 208.220383 28.441127 208.220383 28.066622 C 208.220383 27.692117 208.220383 27.221702 208.220383 26.659944 C 208.220383 26.098186 208.215816 25.536429 208.202114 24.979238 C 208.188413 24.41748 208.179279 23.951632 208.179279 23.577127 C 208.179279 23.198055 208.179279 23.010803 208.179279 23.010803 L 198.204654 23.010803 C 198.040237 23.010803 197.81188 22.937728 197.519584 22.796147 C 197.22272 22.645432 197.076572 22.238957 197.076572 21.572155 L 197.076572 18.530442 C 197.076572 17.886476 197.22272 17.484568 197.519584 17.324718 C 197.81188 17.164869 198.040237 17.08266 198.204654 17.08266 L 212.385611 17.08266 C 212.655072 17.08266 212.956503 17.183137 213.285337 17.384091 C 213.618738 17.589612 213.787722 18.078296 213.787722 18.854709 L 213.787722 29.582911 C 213.787722 32.23185 213.399515 34.131778 212.623102 35.278129 C 211.82842 36.451883 210.677502 37.041044 209.179482 37.041044 L 195.473507 37.041044 C 193.737995 37.041044 192.23084 36.812687 190.952042 36.355973 C 189.718916 35.93123 188.69131 35.195921 187.860091 34.154614 C 187.03344 33.085904 186.448846 31.775136 186.101744 30.231444 C 185.914492 29.427628 185.777477 28.546171 185.699836 27.587073 C 185.622195 26.623407 185.581091 25.5821 185.581091 24.458585 L 185.581091 16.52547 C 185.581091 15.429357 185.622195 14.401751 185.699836 13.442653 C 185.777477 12.478987 185.914492 11.606664 186.101744 10.830251 C 186.288997 10.031002 186.531055 9.300261 186.823352 8.651727 C 187.120215 7.998627 187.462751 7.418601 187.860091 6.907081 C 188.613669 5.916013 189.641274 5.17157 190.952042 4.669185 C 192.23084 4.212471 193.737995 3.984115 195.473507 3.984115 Z M 246.314863 29.829536 C 246.506683 29.829536 246.744174 29.902611 247.041038 30.053326 C 247.333335 30.199474 247.479483 30.573979 247.479483 31.190543 L 247.479483 35.602396 C 247.479483 36.214392 247.333335 36.593465 247.041038 36.74418 C 246.744174 36.890328 246.506683 36.958835 246.314863 36.958835 L 232.092802 36.958835 C 231.211345 36.958835 230.393828 36.908597 229.644817 36.803553 C 228.900374 36.693942 228.224438 36.515823 227.612442 36.278332 C 226.301674 35.826186 225.2558 35.090877 224.479387 34.076973 C 223.680138 33.031099 223.104679 31.724898 222.757576 30.153803 C 222.620562 29.482434 222.506384 28.742558 222.415041 27.943309 C 222.323699 27.139493 222.264326 26.271738 222.24149 25.340042 L 222.24149 25.143655 L 222.319131 20.087836 C 222.396773 19.790972 222.542921 19.457571 222.757576 19.087633 C 223.346737 18.046326 224.25103 17.484568 225.479589 17.406927 L 246.159581 17.365823 C 246.323998 17.365823 246.552354 17.438897 246.844651 17.589612 C 247.136948 17.735761 247.283096 18.114833 247.283096 18.726829 L 247.283096 21.896421 C 247.283096 22.508418 247.136948 22.896624 246.844651 23.061041 C 246.552354 23.216324 246.323998 23.293965 246.159581 23.293965 L 228.247274 23.293965 C 228.247274 23.293965 228.23814 23.440113 228.229005 23.73241 C 228.215304 24.029274 228.201602 24.362675 228.187901 24.741747 C 228.1742 25.116252 228.169632 25.445086 228.169632 25.74195 C 228.169632 26.034246 228.169632 26.180395 228.169632 26.180395 C 228.192468 26.285439 228.20617 26.399617 228.20617 26.52293 C 228.20617 26.641676 228.219871 26.755854 228.247274 26.865465 C 228.352318 27.609908 228.580675 28.208203 228.932344 28.664917 C 229.252044 29.062258 229.653952 29.354554 230.133501 29.546374 C 230.430365 29.624015 230.74093 29.692522 231.074331 29.751895 C 231.407732 29.802134 231.786804 29.829536 232.220682 29.829536 Z M 246.355967 3.906473 C 246.515817 3.906473 246.744174 3.988682 247.041038 4.148531 C 247.333335 4.308381 247.479483 4.692021 247.479483 5.304017 L 247.479483 8.473609 C 247.479483 9.085605 247.333335 9.473812 247.041038 9.638229 C 246.744174 9.793511 246.515817 9.871153 246.355967 9.871153 L 223.314767 9.834616 C 223.159484 9.834616 222.940262 9.761541 222.661667 9.61996 C 222.378504 9.469245 222.24149 9.085605 222.24149 8.473609 L 222.24149 5.345121 C 222.24149 4.705722 222.378504 4.308381 222.661667 4.148531 C 222.940262 3.988682 223.159484 3.906473 223.314767 3.906473 Z M 246.355967 3.906473 " stroke="#6f5ce6" stroke-width="3.256045" stroke-opacity="1" stroke-miterlimit="4"/><g fill="#ffffff" fill-opacity="1"><g transform="translate(143.150658, 75.769583)"><g><path d="M 26.421875 -28.234375 C 26.578125 -28.234375 26.78125 -28.171875 27.03125 -28.046875 C 27.28125 -27.921875 27.40625 -27.59375 27.40625 -27.0625 L 27.40625 -24.390625 C 27.40625 -23.828125 27.28125 -23.476562 27.03125 -23.34375 C 26.78125 -23.21875 26.578125 -23.15625 26.421875 -23.15625 L 17.609375 -23.15625 L 17.609375 -1.171875 C 17.609375 -0.640625 17.488281 -0.3125 17.25 -0.1875 C 17.007812 -0.0625 16.8125 0 16.65625 0 L 13.5 0 C 13.363281 0 13.171875 -0.0625 12.921875 -0.1875 C 12.671875 -0.3125 12.546875 -0.640625 12.546875 -1.171875 L 12.546875 -23.15625 L 3.734375 -23.15625 C 3.578125 -23.15625 3.367188 -23.21875 3.109375 -23.34375 C 2.859375 -23.476562 2.734375 -23.828125 2.734375 -24.390625 L 2.734375 -27.0625 C 2.734375 -27.59375 2.859375 -27.921875 3.109375 -28.046875 C 3.367188 -28.171875 3.578125 -28.234375 3.734375 -28.234375 Z M 26.421875 -28.234375 "/></g></g></g><g fill="#ffffff" fill-opacity="1"><g transform="translate(175.0173, 75.769583)"><g><path d="M 26.109375 -20.046875 L 26.109375 -19.84375 C 26.109375 -19.863281 26.109375 -19.878906 26.109375 -19.890625 C 26.109375 -19.898438 26.109375 -19.914062 26.109375 -19.9375 C 26.109375 -19.96875 26.109375 -19.988281 26.109375 -20 C 26.109375 -20.007812 26.109375 -20.023438 26.109375 -20.046875 Z M 26.765625 -1.46875 C 26.898438 -1.289062 26.941406 -1.019531 26.890625 -0.65625 C 26.828125 -0.195312 26.566406 0.03125 26.109375 0.03125 L 22.34375 0.03125 C 22.039062 0.03125 21.800781 -0.0351562 21.625 -0.171875 C 21.550781 -0.210938 21.484375 -0.28125 21.421875 -0.375 C 21.367188 -0.46875 21.3125 -0.5625 21.25 -0.65625 L 15.046875 -11.65625 L 7.8125 -11.65625 L 7.8125 -1.171875 C 7.8125 -0.640625 7.691406 -0.304688 7.453125 -0.171875 C 7.210938 -0.0351562 7.015625 0.03125 6.859375 0.03125 L 3.734375 0.03125 C 3.578125 0.03125 3.367188 -0.0351562 3.109375 -0.171875 C 2.859375 -0.304688 2.734375 -0.640625 2.734375 -1.171875 L 2.734375 -15.5625 C 2.734375 -16.082031 2.859375 -16.40625 3.109375 -16.53125 C 3.367188 -16.65625 3.578125 -16.71875 3.734375 -16.71875 L 18.640625 -16.71875 C 19.503906 -16.71875 20.109375 -16.96875 20.453125 -17.46875 C 20.816406 -17.976562 21 -18.800781 21 -19.9375 C 21 -21.082031 20.816406 -21.90625 20.453125 -22.40625 C 20.109375 -22.90625 19.503906 -23.15625 18.640625 -23.15625 L 3.734375 -23.15625 C 3.578125 -23.15625 3.367188 -23.21875 3.109375 -23.34375 C 2.859375 -23.476562 2.734375 -23.804688 2.734375 -24.328125 L 2.734375 -27.03125 C 2.734375 -27.582031 2.859375 -27.921875 3.109375 -28.046875 C 3.367188 -28.171875 3.578125 -28.234375 3.734375 -28.234375 L 19.53125 -28.234375 C 21.882812 -28.234375 23.578125 -27.503906 24.609375 -26.046875 C 25.585938 -24.628906 26.085938 -22.59375 26.109375 -19.9375 C 26.085938 -17.289062 25.585938 -15.257812 24.609375 -13.84375 C 23.734375 -12.65625 22.453125 -11.957031 20.765625 -11.75 Z M 26.765625 -1.46875 "/></g></g></g><g fill="#ffffff" fill-opacity="1"><g transform="translate(206.404235, 75.769583)"><g><path d="M 26.421875 -28.234375 C 26.578125 -28.234375 26.773438 -28.171875 27.015625 -28.046875 C 27.253906 -27.921875 27.375 -27.59375 27.375 -27.0625 L 27.375 -10.71875 C 27.375 -9.757812 27.335938 -8.867188 27.265625 -8.046875 C 27.203125 -7.222656 27.09375 -6.484375 26.9375 -5.828125 C 26.613281 -4.410156 26.117188 -3.289062 25.453125 -2.46875 C 24.796875 -1.601562 23.90625 -0.960938 22.78125 -0.546875 C 21.757812 -0.179688 20.472656 0 18.921875 0 L 11.203125 0 C 9.648438 0 8.359375 -0.179688 7.328125 -0.546875 C 6.804688 -0.753906 6.316406 -1.015625 5.859375 -1.328125 C 5.398438 -1.648438 5.007812 -2.03125 4.6875 -2.46875 C 3.976562 -3.332031 3.476562 -4.453125 3.1875 -5.828125 C 3.03125 -6.484375 2.914062 -7.222656 2.84375 -8.046875 C 2.769531 -8.867188 2.734375 -9.757812 2.734375 -10.71875 L 2.734375 -27.0625 C 2.734375 -27.59375 2.859375 -27.921875 3.109375 -28.046875 C 3.367188 -28.171875 3.578125 -28.234375 3.734375 -28.234375 L 6.859375 -28.234375 C 7.015625 -28.234375 7.210938 -28.171875 7.453125 -28.046875 C 7.691406 -27.921875 7.8125 -27.59375 7.8125 -27.0625 L 7.8125 -10.171875 C 7.8125 -9.671875 7.828125 -9.195312 7.859375 -8.75 C 7.898438 -8.3125 7.941406 -7.929688 7.984375 -7.609375 C 8.117188 -6.992188 8.3125 -6.476562 8.5625 -6.0625 C 8.84375 -5.71875 9.1875 -5.46875 9.59375 -5.3125 C 9.820312 -5.238281 10.082031 -5.179688 10.375 -5.140625 C 10.675781 -5.097656 11.007812 -5.078125 11.375 -5.078125 L 18.78125 -5.078125 C 19.144531 -5.078125 19.472656 -5.097656 19.765625 -5.140625 C 20.066406 -5.179688 20.332031 -5.238281 20.5625 -5.3125 C 20.96875 -5.46875 21.3125 -5.71875 21.59375 -6.0625 C 21.707031 -6.25 21.8125 -6.472656 21.90625 -6.734375 C 22.007812 -6.992188 22.085938 -7.285156 22.140625 -7.609375 C 22.179688 -7.929688 22.21875 -8.3125 22.25 -8.75 C 22.289062 -9.195312 22.3125 -9.671875 22.3125 -10.171875 L 22.3125 -27.0625 C 22.3125 -27.59375 22.429688 -27.921875 22.671875 -28.046875 C 22.910156 -28.171875 23.109375 -28.234375 23.265625 -28.234375 Z M 26.421875 -28.234375 "/></g></g></g><g fill="#ffffff" fill-opacity="1"><g transform="translate(238.236618, 75.769583)"><g><path d="M 23.328125 -6.140625 C 23.492188 -6.140625 23.703125 -6.070312 23.953125 -5.9375 C 24.203125 -5.8125 24.328125 -5.488281 24.328125 -4.96875 L 24.328125 -1.203125 C 24.328125 -0.671875 24.203125 -0.34375 23.953125 -0.21875 C 23.703125 -0.09375 23.492188 -0.03125 23.328125 -0.03125 L 11.171875 -0.03125 C 10.421875 -0.03125 9.722656 -0.078125 9.078125 -0.171875 C 8.441406 -0.265625 7.859375 -0.410156 7.328125 -0.609375 C 6.210938 -1.003906 5.320312 -1.632812 4.65625 -2.5 C 3.96875 -3.394531 3.476562 -4.515625 3.1875 -5.859375 C 3.070312 -6.429688 2.972656 -7.054688 2.890625 -7.734375 C 2.816406 -8.421875 2.765625 -9.164062 2.734375 -9.96875 L 2.734375 -10.140625 L 2.8125 -14.453125 C 2.875 -14.710938 3 -15 3.1875 -15.3125 C 3.6875 -16.207031 4.460938 -16.6875 5.515625 -16.75 L 23.203125 -16.796875 C 23.335938 -16.796875 23.53125 -16.726562 23.78125 -16.59375 C 24.03125 -16.46875 24.15625 -16.144531 24.15625 -15.625 L 24.15625 -12.921875 C 24.15625 -12.390625 24.03125 -12.054688 23.78125 -11.921875 C 23.53125 -11.785156 23.335938 -11.71875 23.203125 -11.71875 L 7.875 -11.71875 C 7.875 -11.71875 7.867188 -11.59375 7.859375 -11.34375 C 7.847656 -11.09375 7.835938 -10.804688 7.828125 -10.484375 C 7.816406 -10.160156 7.8125 -9.875 7.8125 -9.625 C 7.8125 -9.375 7.8125 -9.25 7.8125 -9.25 C 7.832031 -9.15625 7.84375 -9.054688 7.84375 -8.953125 C 7.84375 -8.859375 7.851562 -8.765625 7.875 -8.671875 C 7.96875 -8.023438 8.164062 -7.507812 8.46875 -7.125 C 8.738281 -6.78125 9.078125 -6.53125 9.484375 -6.375 C 9.742188 -6.300781 10.015625 -6.242188 10.296875 -6.203125 C 10.578125 -6.160156 10.898438 -6.140625 11.265625 -6.140625 Z M 5.75 -16.484375 Z M 23.375 -28.296875 C 23.507812 -28.296875 23.703125 -28.226562 23.953125 -28.09375 C 24.203125 -27.957031 24.328125 -27.628906 24.328125 -27.109375 L 24.328125 -24.390625 C 24.328125 -23.867188 24.203125 -23.539062 23.953125 -23.40625 C 23.703125 -23.269531 23.507812 -23.203125 23.375 -23.203125 L 3.671875 -23.234375 C 3.523438 -23.234375 3.332031 -23.296875 3.09375 -23.421875 C 2.851562 -23.546875 2.734375 -23.867188 2.734375 -24.390625 L 2.734375 -27.0625 C 2.734375 -27.613281 2.851562 -27.957031 3.09375 -28.09375 C 3.332031 -28.226562 3.523438 -28.296875 3.671875 -28.296875 Z M 23.375 -28.296875 "/></g></g></g><g fill="#ffffff" fill-opacity="1"><g transform="translate(267.019389, 75.769583)"><g><path d="M 26.140625 -21.859375 C 26.484375 -20.421875 26.65625 -18.734375 26.65625 -16.796875 L 26.65625 -11.40625 C 26.65625 -9.46875 26.484375 -7.78125 26.140625 -6.34375 C 25.984375 -5.632812 25.757812 -4.972656 25.46875 -4.359375 C 25.1875 -3.753906 24.863281 -3.226562 24.5 -2.78125 C 23.75 -1.820312 22.78125 -1.113281 21.59375 -0.65625 C 20.425781 -0.195312 19.039062 0.03125 17.4375 0.03125 L 5.71875 0.03125 C 5.195312 0.03125 4.703125 -0.0976562 4.234375 -0.359375 C 3.765625 -0.617188 3.394531 -0.976562 3.125 -1.4375 C 2.9375 -1.757812 2.804688 -2.113281 2.734375 -2.5 L 2.78125 -25.90625 C 2.820312 -26.039062 2.867188 -26.179688 2.921875 -26.328125 C 2.984375 -26.484375 3.050781 -26.628906 3.125 -26.765625 C 3.664062 -27.648438 4.453125 -28.128906 5.484375 -28.203125 L 5.484375 -28.234375 L 17.4375 -28.234375 C 19.019531 -28.234375 20.40625 -28.003906 21.59375 -27.546875 C 22.75 -27.085938 23.71875 -26.390625 24.5 -25.453125 C 24.863281 -24.972656 25.1875 -24.4375 25.46875 -23.84375 C 25.757812 -23.25 25.984375 -22.585938 26.140625 -21.859375 Z M 7.78125 -5.25 C 7.78125 -5.175781 7.785156 -5.128906 7.796875 -5.109375 C 7.804688 -5.085938 7.8125 -5.078125 7.8125 -5.078125 L 17.34375 -5.078125 C 17.726562 -5.078125 18.09375 -5.097656 18.4375 -5.140625 C 18.78125 -5.179688 19.085938 -5.25 19.359375 -5.34375 C 19.878906 -5.550781 20.300781 -5.859375 20.625 -6.265625 C 20.96875 -6.722656 21.207031 -7.316406 21.34375 -8.046875 C 21.414062 -8.441406 21.472656 -8.875 21.515625 -9.34375 C 21.566406 -9.8125 21.59375 -10.328125 21.59375 -10.890625 L 21.59375 -17.296875 C 21.59375 -17.867188 21.566406 -18.394531 21.515625 -18.875 C 21.472656 -19.351562 21.414062 -19.789062 21.34375 -20.1875 C 21.207031 -20.914062 20.96875 -21.5 20.625 -21.9375 C 20.351562 -22.34375 19.929688 -22.648438 19.359375 -22.859375 C 18.804688 -23.054688 18.132812 -23.15625 17.34375 -23.15625 L 7.84375 -23.15625 C 7.800781 -23.15625 7.78125 -23.085938 7.78125 -22.953125 Z M 7.78125 -5.25 "/></g></g></g><g fill="#ffffff" fill-opacity="1"><g transform="translate(298.132192, 75.769583)"><g><path d="M 25.9375 -28.234375 C 26.070312 -28.234375 26.265625 -28.164062 26.515625 -28.03125 C 26.765625 -27.894531 26.890625 -27.5625 26.890625 -27.03125 L 26.890625 -24.359375 C 26.890625 -23.816406 26.765625 -23.476562 26.515625 -23.34375 C 26.265625 -23.21875 26.070312 -23.15625 25.9375 -23.15625 L 11.375 -23.15625 C 11.007812 -23.15625 10.675781 -23.132812 10.375 -23.09375 C 10.082031 -23.050781 9.820312 -22.992188 9.59375 -22.921875 C 9.1875 -22.765625 8.84375 -22.515625 8.5625 -22.171875 C 8.289062 -21.753906 8.109375 -21.25 8.015625 -20.65625 C 7.878906 -19.976562 7.8125 -19.125 7.8125 -18.09375 L 7.8125 -10.140625 C 7.8125 -9.109375 7.878906 -8.253906 8.015625 -7.578125 C 8.109375 -6.953125 8.289062 -6.445312 8.5625 -6.0625 C 8.84375 -5.695312 9.1875 -5.445312 9.59375 -5.3125 C 10.007812 -5.15625 10.601562 -5.078125 11.375 -5.078125 L 20.96875 -5.078125 C 21.351562 -5.078125 21.628906 -5.203125 21.796875 -5.453125 C 21.859375 -5.566406 21.921875 -5.75 21.984375 -6 C 22.054688 -6.25 22.09375 -6.632812 22.09375 -7.15625 C 22.09375 -7.15625 22.09375 -7.316406 22.09375 -7.640625 C 22.09375 -7.960938 22.09375 -8.363281 22.09375 -8.84375 C 22.09375 -9.320312 22.085938 -9.800781 22.078125 -10.28125 C 22.066406 -10.757812 22.0625 -11.15625 22.0625 -11.46875 C 22.0625 -11.789062 22.0625 -11.953125 22.0625 -11.953125 L 13.53125 -11.953125 C 13.394531 -11.953125 13.203125 -12.015625 12.953125 -12.140625 C 12.703125 -12.265625 12.578125 -12.613281 12.578125 -13.1875 L 12.578125 -15.796875 C 12.578125 -16.347656 12.703125 -16.691406 12.953125 -16.828125 C 13.203125 -16.960938 13.394531 -17.03125 13.53125 -17.03125 L 25.671875 -17.03125 C 25.890625 -17.03125 26.140625 -16.941406 26.421875 -16.765625 C 26.710938 -16.597656 26.859375 -16.179688 26.859375 -15.515625 L 26.859375 -6.34375 C 26.859375 -4.082031 26.53125 -2.457031 25.875 -1.46875 C 25.1875 -0.46875 24.203125 0.03125 22.921875 0.03125 L 11.203125 0.03125 C 9.722656 0.03125 8.429688 -0.160156 7.328125 -0.546875 C 6.273438 -0.910156 5.394531 -1.539062 4.6875 -2.4375 C 3.976562 -3.34375 3.476562 -4.460938 3.1875 -5.796875 C 3.03125 -6.472656 2.914062 -7.222656 2.84375 -8.046875 C 2.769531 -8.867188 2.734375 -9.757812 2.734375 -10.71875 L 2.734375 -17.515625 C 2.734375 -18.453125 2.769531 -19.328125 2.84375 -20.140625 C 2.914062 -20.960938 3.03125 -21.707031 3.1875 -22.375 C 3.34375 -23.0625 3.546875 -23.679688 3.796875 -24.234375 C 4.054688 -24.796875 4.351562 -25.296875 4.6875 -25.734375 C 5.332031 -26.578125 6.210938 -27.21875 7.328125 -27.65625 C 8.429688 -28.039062 9.722656 -28.234375 11.203125 -28.234375 Z M 25.9375 -28.234375 "/></g></g></g><g fill="#ffffff" fill-opacity="1"><g transform="translate(329.484856, 75.769583)"><g><path d="M 23.328125 -6.140625 C 23.492188 -6.140625 23.703125 -6.070312 23.953125 -5.9375 C 24.203125 -5.8125 24.328125 -5.488281 24.328125 -4.96875 L 24.328125 -1.203125 C 24.328125 -0.671875 24.203125 -0.34375 23.953125 -0.21875 C 23.703125 -0.09375 23.492188 -0.03125 23.328125 -0.03125 L 11.171875 -0.03125 C 10.421875 -0.03125 9.722656 -0.078125 9.078125 -0.171875 C 8.441406 -0.265625 7.859375 -0.410156 7.328125 -0.609375 C 6.210938 -1.003906 5.320312 -1.632812 4.65625 -2.5 C 3.96875 -3.394531 3.476562 -4.515625 3.1875 -5.859375 C 3.070312 -6.429688 2.972656 -7.054688 2.890625 -7.734375 C 2.816406 -8.421875 2.765625 -9.164062 2.734375 -9.96875 L 2.734375 -10.140625 L 2.8125 -14.453125 C 2.875 -14.710938 3 -15 3.1875 -15.3125 C 3.6875 -16.207031 4.460938 -16.6875 5.515625 -16.75 L 23.203125 -16.796875 C 23.335938 -16.796875 23.53125 -16.726562 23.78125 -16.59375 C 24.03125 -16.46875 24.15625 -16.144531 24.15625 -15.625 L 24.15625 -12.921875 C 24.15625 -12.390625 24.03125 -12.054688 23.78125 -11.921875 C 23.53125 -11.785156 23.335938 -11.71875 23.203125 -11.71875 L 7.875 -11.71875 C 7.875 -11.71875 7.867188 -11.59375 7.859375 -11.34375 C 7.847656 -11.09375 7.835938 -10.804688 7.828125 -10.484375 C 7.816406 -10.160156 7.8125 -9.875 7.8125 -9.625 C 7.8125 -9.375 7.8125 -9.25 7.8125 -9.25 C 7.832031 -9.15625 7.84375 -9.054688 7.84375 -8.953125 C 7.84375 -8.859375 7.851562 -8.765625 7.875 -8.671875 C 7.96875 -8.023438 8.164062 -7.507812 8.46875 -7.125 C 8.738281 -6.78125 9.078125 -6.53125 9.484375 -6.375 C 9.742188 -6.300781 10.015625 -6.242188 10.296875 -6.203125 C 10.578125 -6.160156 10.898438 -6.140625 11.265625 -6.140625 Z M 5.75 -16.484375 Z M 23.375 -28.296875 C 23.507812 -28.296875 23.703125 -28.226562 23.953125 -28.09375 C 24.203125 -27.957031 24.328125 -27.628906 24.328125 -27.109375 L 24.328125 -24.390625 C 24.328125 -23.867188 24.203125 -23.539062 23.953125 -23.40625 C 23.703125 -23.269531 23.507812 -23.203125 23.375 -23.203125 L 3.671875 -23.234375 C 3.523438 -23.234375 3.332031 -23.296875 3.09375 -23.421875 C 2.851562 -23.546875 2.734375 -23.867188 2.734375 -24.390625 L 2.734375 -27.0625 C 2.734375 -27.613281 2.851562 -27.957031 3.09375 -28.09375 C 3.332031 -28.226562 3.523438 -28.296875 3.671875 -28.296875 Z M 23.375 -28.296875 "/></g></g></g><path stroke-linecap="butt" transform="matrix(0.855295, 0, 0, 0.855295, 142.148359, 94.981125)" fill="none" stroke-linejoin="miter" d="M 35.304052 11.439908 C 35.710527 13.120614 35.911481 15.098184 35.911481 17.368051 L 35.911481 23.656997 C 35.911481 25.926863 35.710527 27.899866 35.304052 29.585139 C 35.121367 30.411791 34.86104 31.183637 34.523072 31.891543 C 34.189671 32.599449 33.810599 33.216012 33.385855 33.750367 C 32.499831 34.873882 31.362614 35.700534 29.974205 36.234889 C 28.617765 36.773811 27.000999 37.038705 25.133041 37.038705 L 11.427066 37.038705 C 10.810503 37.038705 10.230476 36.887989 9.68242 36.577424 C 9.134364 36.271426 8.705053 35.85125 8.385354 35.316895 C 8.166131 34.946957 8.019983 34.531347 7.942341 34.074634 L 7.983446 6.703788 C 8.033684 6.548506 8.093057 6.384089 8.156997 6.215105 C 8.225504 6.036987 8.298578 5.868003 8.385354 5.703586 C 9.020185 4.662279 9.942747 4.100521 11.143904 4.02288 L 11.143904 3.981775 L 25.133041 3.981775 C 26.969029 3.981775 28.585795 4.251237 29.974205 4.785591 C 31.335211 5.319946 32.476995 6.137464 33.385855 7.229009 C 33.810599 7.790767 34.189671 8.421032 34.523072 9.119803 C 34.86104 9.809441 35.121367 10.581287 35.304052 11.439908 Z M 13.833947 30.868504 C 13.833947 30.950713 13.838514 31.005518 13.852215 31.032921 C 13.865917 31.060324 13.870484 31.069458 13.870484 31.069458 L 25.014295 31.069458 C 25.461875 31.069458 25.886618 31.046623 26.283959 30.991817 C 26.690434 30.932444 27.051238 30.854803 27.370937 30.749759 C 27.982934 30.507701 28.480751 30.146897 28.859824 29.66278 C 29.257164 29.132993 29.53576 28.438788 29.700177 27.580166 C 29.777818 27.12802 29.841758 26.630202 29.896563 26.082146 C 29.946802 25.53409 29.974205 24.926661 29.974205 24.255292 L 29.974205 16.769756 C 29.974205 16.098387 29.946802 15.481824 29.896563 14.920066 C 29.841758 14.358308 29.777818 13.851356 29.700177 13.394642 C 29.53576 12.540588 29.257164 11.860085 28.859824 11.3577 C 28.540124 10.878151 28.042306 10.51278 27.370937 10.275289 C 26.731538 10.033231 25.945991 9.909918 25.014295 9.909918 L 13.911588 9.909918 C 13.856782 9.909918 13.833947 9.992126 13.833947 10.156543 Z M 49.124205 3.981775 C 49.284055 3.981775 49.512412 4.063984 49.809276 4.228401 C 50.101573 4.383683 50.247721 4.767323 50.247721 5.383886 L 50.247721 35.641161 C 50.247721 36.253157 50.101573 36.641364 49.809276 36.805781 C 49.512412 36.961064 49.284055 37.038705 49.124205 37.038705 L 45.43396 37.038705 C 45.278677 37.038705 45.054887 36.961064 44.758024 36.805781 C 44.465727 36.641364 44.319579 36.253157 44.319579 35.641161 L 44.319579 5.383886 C 44.319579 4.767323 44.465727 4.383683 44.758024 4.228401 C 45.054887 4.063984 45.278677 3.981775 45.43396 3.981775 Z M 85.789172 3.981775 C 85.944455 3.981775 86.172812 4.063984 86.465108 4.228401 C 86.757405 4.383683 86.903553 4.767323 86.903553 5.383886 L 86.903553 8.512374 C 86.903553 9.151773 86.757405 9.544547 86.465108 9.695262 C 86.172812 9.841411 85.944455 9.909918 85.789172 9.909918 L 68.758322 9.909918 C 68.329012 9.909918 67.940805 9.937321 67.593703 9.992126 C 67.246601 10.042365 66.940602 10.110872 66.675709 10.19308 C 66.191592 10.375766 65.789684 10.67263 65.469985 11.074537 C 65.150285 11.558654 64.93563 12.143247 64.826019 12.837452 C 64.670736 13.636701 64.588527 14.641471 64.588527 15.83806 L 64.588527 25.141316 C 64.588527 26.342473 64.670736 27.342675 64.826019 28.146491 C 64.93563 28.863532 65.150285 29.452692 65.469985 29.909406 C 65.789684 30.338717 66.191592 30.631013 66.675709 30.786296 C 67.155258 30.978116 67.849462 31.069458 68.758322 31.069458 L 79.979775 31.069458 C 80.427355 31.069458 80.747054 30.92331 80.938874 30.631013 C 81.016515 30.493999 81.094156 30.279344 81.171798 29.987047 C 81.258573 29.690183 81.299678 29.238037 81.299678 28.626041 C 81.299678 28.626041 81.299678 28.438788 81.299678 28.06885 C 81.299678 27.689778 81.299678 27.219363 81.299678 26.657605 C 81.299678 26.100414 81.290543 25.538657 81.281409 24.976899 C 81.267708 24.415141 81.258573 23.949293 81.258573 23.579355 C 81.258573 23.200283 81.258573 23.008463 81.258573 23.008463 L 71.283949 23.008463 C 71.119532 23.008463 70.891175 22.939956 70.598878 22.793808 C 70.302014 22.64766 70.155866 22.236618 70.155866 21.574383 L 70.155866 18.528103 C 70.155866 17.884137 70.302014 17.482229 70.598878 17.326946 C 70.891175 17.16253 71.119532 17.080321 71.283949 17.080321 L 85.464905 17.080321 C 85.734366 17.080321 86.035797 17.185365 86.364631 17.386319 C 86.698032 17.587273 86.867016 18.075957 86.867016 18.85237 L 86.867016 29.585139 C 86.867016 32.234078 86.47881 34.129439 85.702397 35.280358 C 84.907715 36.454111 83.756797 37.038705 82.258776 37.038705 L 68.552801 37.038705 C 66.81729 37.038705 65.310135 36.810348 64.031337 36.353634 C 62.79821 35.928891 61.770605 35.198149 60.939386 34.152275 C 60.112734 33.083565 59.528141 31.777364 59.181039 30.229105 C 58.989219 29.429856 58.856772 28.548399 58.779131 27.589301 C 58.701489 26.625635 58.660385 25.579761 58.660385 24.460813 L 58.660385 16.523131 C 58.660385 15.427018 58.701489 14.40398 58.779131 13.444881 C 58.856772 12.476648 58.989219 11.608892 59.181039 10.832479 C 59.368291 10.028663 59.610349 9.302489 59.902646 8.649388 C 60.19951 7.996288 60.542045 7.416262 60.939386 6.90931 C 61.692963 5.918241 62.720569 5.169231 64.031337 4.666846 C 65.310135 4.210132 66.81729 3.981775 68.552801 3.981775 Z M 100.120844 3.981775 C 100.285261 3.981775 100.513618 4.063984 100.805915 4.228401 C 101.102779 4.383683 101.248927 4.767323 101.248927 5.383886 L 101.248927 35.641161 C 101.248927 36.253157 101.102779 36.641364 100.805915 36.805781 C 100.513618 36.961064 100.285261 37.038705 100.120844 37.038705 L 96.435166 37.038705 C 96.279883 37.038705 96.051526 36.961064 95.75923 36.805781 C 95.466933 36.641364 95.320785 36.253157 95.320785 35.641161 L 95.320785 5.383886 C 95.320785 4.767323 95.466933 4.383683 95.75923 4.228401 C 96.051526 4.063984 96.279883 3.981775 96.435166 3.981775 Z M 137.347569 3.981775 C 137.534821 3.981775 137.77688 4.059417 138.069176 4.210132 C 138.36604 4.351713 138.512188 4.730786 138.512188 5.342782 L 138.512188 8.475837 C 138.512188 9.138072 138.36604 9.544547 138.069176 9.695262 C 137.77688 9.841411 137.534821 9.909918 137.347569 9.909918 L 127.04411 9.909918 L 127.04411 35.641161 C 127.04411 36.253157 126.907096 36.636797 126.623934 36.782945 C 126.345339 36.929094 126.112415 37.002168 125.929729 37.002168 L 122.244051 37.002168 C 122.079634 37.002168 121.851277 36.929094 121.55898 36.782945 C 121.262116 36.636797 121.115968 36.253157 121.115968 35.641161 L 121.115968 9.909918 L 110.817077 9.909918 C 110.634391 9.909918 110.3969 9.841411 110.100036 9.695262 C 109.80774 9.544547 109.661591 9.138072 109.661591 8.475837 L 109.661591 5.342782 C 109.661591 4.730786 109.80774 4.351713 110.100036 4.210132 C 110.3969 4.059417 110.634391 3.981775 110.817077 3.981775 Z M 168.394958 7.708558 L 179.652948 35.472177 C 179.817365 35.85125 179.853902 36.175516 179.771694 36.44041 C 179.744291 36.545454 179.66665 36.673334 179.543337 36.824049 C 179.429159 36.965631 179.209936 37.038705 178.890237 37.038705 L 174.606263 37.038705 C 174.044505 37.038705 173.656299 36.746408 173.441643 36.157248 L 163.503556 11.3577 C 163.476153 11.302894 163.462452 11.270924 163.462452 11.270924 L 163.307169 11.270924 C 163.307169 11.270924 163.298035 11.280059 163.284333 11.289193 C 163.275199 11.302894 163.252363 11.339431 163.229528 11.398804 L 158.0915 24.378604 L 163.060544 24.378604 C 163.622301 24.378604 164.010508 24.648065 164.225163 25.18242 L 165.672945 28.744786 C 165.805392 29.2015 165.74602 29.589706 165.508529 29.909406 C 165.289306 30.279344 164.946771 30.466596 164.471789 30.466596 L 155.693754 30.466596 L 153.405618 36.198352 C 153.190963 36.76011 152.816458 37.038705 152.291237 37.038705 L 147.879384 37.038705 C 147.559685 37.038705 147.335895 36.965631 147.212582 36.824049 C 147.093837 36.673334 147.02533 36.545454 146.997927 36.44041 C 146.920286 36.202919 146.947688 35.878652 147.075568 35.472177 L 158.255917 7.708558 C 158.794839 6.297313 159.379432 5.319946 160.018831 4.785591 C 160.096473 4.735353 160.187815 4.666846 160.292859 4.589205 C 160.402471 4.506996 160.512082 4.438489 160.62626 4.383683 C 161.420942 3.821926 162.338936 3.54333 163.38481 3.54333 C 164.480923 3.54333 165.467424 3.876731 166.348881 4.552667 C 167.230339 5.214902 167.833201 6.068957 168.157467 7.105696 C 168.212273 7.187905 168.257944 7.283815 168.294481 7.388859 C 168.335586 7.493903 168.367556 7.598947 168.394958 7.708558 Z M 211.380841 31.069458 C 211.568094 31.069458 211.805585 31.151667 212.08418 31.316084 C 212.367342 31.471366 212.504356 31.859573 212.504356 32.471569 L 212.504356 35.641161 C 212.504356 36.253157 212.367342 36.641364 212.08418 36.805781 C 211.805585 36.961064 211.568094 37.038705 211.380841 37.038705 L 198.154416 37.038705 C 196.391501 37.038705 194.898048 36.810348 193.674055 36.353634 C 192.413526 35.928891 191.372219 35.184448 190.545567 34.115738 C 189.769154 33.156639 189.193695 31.845871 188.823757 30.192568 C 188.449252 28.562101 188.261999 26.648471 188.261999 24.460813 L 188.261999 5.383886 C 188.261999 4.744487 188.412715 4.351713 188.705012 4.210132 C 188.997308 4.059417 189.234799 3.981775 189.417485 3.981775 L 193.10773 3.981775 C 193.26758 3.981775 193.495937 4.059417 193.792801 4.210132 C 194.085098 4.351713 194.231246 4.744487 194.231246 5.383886 L 194.231246 25.141316 C 194.231246 25.730476 194.244947 26.278533 194.27235 26.785485 C 194.295186 27.28787 194.349991 27.740016 194.427633 28.146491 C 194.537244 28.863532 194.765601 29.452692 195.112703 29.909406 C 195.377597 30.338717 195.765804 30.631013 196.277323 30.786296 C 196.811678 30.978116 197.505882 31.069458 198.359937 31.069458 Z M 211.380841 31.069458 " stroke="#ff6b6b" stroke-width="3.256045" stroke-opacity="1" stroke-miterlimit="4"/><g fill="#ffffff" fill-opacity="1"><g transform="translate(146.197648, 126.627052)"><g><path d="M 26.140625 -21.859375 C 26.484375 -20.421875 26.65625 -18.734375 26.65625 -16.796875 L 26.65625 -11.40625 C 26.65625 -9.46875 26.484375 -7.78125 26.140625 -6.34375 C 25.984375 -5.632812 25.757812 -4.972656 25.46875 -4.359375 C 25.1875 -3.753906 24.863281 -3.226562 24.5 -2.78125 C 23.75 -1.820312 22.78125 -1.113281 21.59375 -0.65625 C 20.425781 -0.195312 19.039062 0.03125 17.4375 0.03125 L 5.71875 0.03125 C 5.195312 0.03125 4.703125 -0.0976562 4.234375 -0.359375 C 3.765625 -0.617188 3.394531 -0.976562 3.125 -1.4375 C 2.9375 -1.757812 2.804688 -2.113281 2.734375 -2.5 L 2.78125 -25.90625 C 2.820312 -26.039062 2.867188 -26.179688 2.921875 -26.328125 C 2.984375 -26.484375 3.050781 -26.628906 3.125 -26.765625 C 3.664062 -27.648438 4.453125 -28.128906 5.484375 -28.203125 L 5.484375 -28.234375 L 17.4375 -28.234375 C 19.019531 -28.234375 20.40625 -28.003906 21.59375 -27.546875 C 22.75 -27.085938 23.71875 -26.390625 24.5 -25.453125 C 24.863281 -24.972656 25.1875 -24.4375 25.46875 -23.84375 C 25.757812 -23.25 25.984375 -22.585938 26.140625 -21.859375 Z M 7.78125 -5.25 C 7.78125 -5.175781 7.785156 -5.128906 7.796875 -5.109375 C 7.804688 -5.085938 7.8125 -5.078125 7.8125 -5.078125 L 17.34375 -5.078125 C 17.726562 -5.078125 18.09375 -5.097656 18.4375 -5.140625 C 18.78125 -5.179688 19.085938 -5.25 19.359375 -5.34375 C 19.878906 -5.550781 20.300781 -5.859375 20.625 -6.265625 C 20.96875 -6.722656 21.207031 -7.316406 21.34375 -8.046875 C 21.414062 -8.441406 21.472656 -8.875 21.515625 -9.34375 C 21.566406 -9.8125 21.59375 -10.328125 21.59375 -10.890625 L 21.59375 -17.296875 C 21.59375 -17.867188 21.566406 -18.394531 21.515625 -18.875 C 21.472656 -19.351562 21.414062 -19.789062 21.34375 -20.1875 C 21.207031 -20.914062 20.96875 -21.5 20.625 -21.9375 C 20.351562 -22.34375 19.929688 -22.648438 19.359375 -22.859375 C 18.804688 -23.054688 18.132812 -23.15625 17.34375 -23.15625 L 7.84375 -23.15625 C 7.800781 -23.15625 7.78125 -23.085938 7.78125 -22.953125 Z M 7.78125 -5.25 "/></g></g></g><g fill="#ffffff" fill-opacity="1"><g transform="translate(177.310451, 126.627052)"><g><path d="M 6.859375 -28.234375 C 6.992188 -28.234375 7.1875 -28.164062 7.4375 -28.03125 C 7.6875 -27.894531 7.8125 -27.5625 7.8125 -27.03125 L 7.8125 -1.171875 C 7.8125 -0.640625 7.6875 -0.304688 7.4375 -0.171875 C 7.1875 -0.0351562 6.992188 0.03125 6.859375 0.03125 L 3.703125 0.03125 C 3.566406 0.03125 3.367188 -0.0351562 3.109375 -0.171875 C 2.859375 -0.304688 2.734375 -0.640625 2.734375 -1.171875 L 2.734375 -27.03125 C 2.734375 -27.5625 2.859375 -27.894531 3.109375 -28.03125 C 3.367188 -28.164062 3.566406 -28.234375 3.703125 -28.234375 Z M 6.859375 -28.234375 "/></g></g></g><g fill="#ffffff" fill-opacity="1"><g transform="translate(189.577392, 126.627052)"><g><path d="M 25.9375 -28.234375 C 26.070312 -28.234375 26.265625 -28.164062 26.515625 -28.03125 C 26.765625 -27.894531 26.890625 -27.5625 26.890625 -27.03125 L 26.890625 -24.359375 C 26.890625 -23.816406 26.765625 -23.476562 26.515625 -23.34375 C 26.265625 -23.21875 26.070312 -23.15625 25.9375 -23.15625 L 11.375 -23.15625 C 11.007812 -23.15625 10.675781 -23.132812 10.375 -23.09375 C 10.082031 -23.050781 9.820312 -22.992188 9.59375 -22.921875 C 9.1875 -22.765625 8.84375 -22.515625 8.5625 -22.171875 C 8.289062 -21.753906 8.109375 -21.25 8.015625 -20.65625 C 7.878906 -19.976562 7.8125 -19.125 7.8125 -18.09375 L 7.8125 -10.140625 C 7.8125 -9.109375 7.878906 -8.253906 8.015625 -7.578125 C 8.109375 -6.953125 8.289062 -6.445312 8.5625 -6.0625 C 8.84375 -5.695312 9.1875 -5.445312 9.59375 -5.3125 C 10.007812 -5.15625 10.601562 -5.078125 11.375 -5.078125 L 20.96875 -5.078125 C 21.351562 -5.078125 21.628906 -5.203125 21.796875 -5.453125 C 21.859375 -5.566406 21.921875 -5.75 21.984375 -6 C 22.054688 -6.25 22.09375 -6.632812 22.09375 -7.15625 C 22.09375 -7.15625 22.09375 -7.316406 22.09375 -7.640625 C 22.09375 -7.960938 22.09375 -8.363281 22.09375 -8.84375 C 22.09375 -9.320312 22.085938 -9.800781 22.078125 -10.28125 C 22.066406 -10.757812 22.0625 -11.15625 22.0625 -11.46875 C 22.0625 -11.789062 22.0625 -11.953125 22.0625 -11.953125 L 13.53125 -11.953125 C 13.394531 -11.953125 13.203125 -12.015625 12.953125 -12.140625 C 12.703125 -12.265625 12.578125 -12.613281 12.578125 -13.1875 L 12.578125 -15.796875 C 12.578125 -16.347656 12.703125 -16.691406 12.953125 -16.828125 C 13.203125 -16.960938 13.394531 -17.03125 13.53125 -17.03125 L 25.671875 -17.03125 C 25.890625 -17.03125 26.140625 -16.941406 26.421875 -16.765625 C 26.710938 -16.597656 26.859375 -16.179688 26.859375 -15.515625 L 26.859375 -6.34375 C 26.859375 -4.082031 26.53125 -2.457031 25.875 -1.46875 C 25.1875 -0.46875 24.203125 0.03125 22.921875 0.03125 L 11.203125 0.03125 C 9.722656 0.03125 8.429688 -0.160156 7.328125 -0.546875 C 6.273438 -0.910156 5.394531 -1.539062 4.6875 -2.4375 C 3.976562 -3.34375 3.476562 -4.460938 3.1875 -5.796875 C 3.03125 -6.472656 2.914062 -7.222656 2.84375 -8.046875 C 2.769531 -8.867188 2.734375 -9.757812 2.734375 -10.71875 L 2.734375 -17.515625 C 2.734375 -18.453125 2.769531 -19.328125 2.84375 -20.140625 C 2.914062 -20.960938 3.03125 -21.707031 3.1875 -22.375 C 3.34375 -23.0625 3.546875 -23.679688 3.796875 -24.234375 C 4.054688 -24.796875 4.351562 -25.296875 4.6875 -25.734375 C 5.332031 -26.578125 6.210938 -27.21875 7.328125 -27.65625 C 8.429688 -28.039062 9.722656 -28.234375 11.203125 -28.234375 Z M 25.9375 -28.234375 "/></g></g></g><g fill="#ffffff" fill-opacity="1"><g transform="translate(220.930056, 126.627052)"><g><path d="M 6.859375 -28.234375 C 6.992188 -28.234375 7.1875 -28.164062 7.4375 -28.03125 C 7.6875 -27.894531 7.8125 -27.5625 7.8125 -27.03125 L 7.8125 -1.171875 C 7.8125 -0.640625 7.6875 -0.304688 7.4375 -0.171875 C 7.1875 -0.0351562 6.992188 0.03125 6.859375 0.03125 L 3.703125 0.03125 C 3.566406 0.03125 3.367188 -0.0351562 3.109375 -0.171875 C 2.859375 -0.304688 2.734375 -0.640625 2.734375 -1.171875 L 2.734375 -27.03125 C 2.734375 -27.5625 2.859375 -27.894531 3.109375 -28.03125 C 3.367188 -28.164062 3.566406 -28.234375 3.703125 -28.234375 Z M 6.859375 -28.234375 "/></g></g></g><g fill="#ffffff" fill-opacity="1"><g transform="translate(233.196998, 126.627052)"><g><path d="M 26.421875 -28.234375 C 26.578125 -28.234375 26.78125 -28.171875 27.03125 -28.046875 C 27.28125 -27.921875 27.40625 -27.59375 27.40625 -27.0625 L 27.40625 -24.390625 C 27.40625 -23.828125 27.28125 -23.476562 27.03125 -23.34375 C 26.78125 -23.21875 26.578125 -23.15625 26.421875 -23.15625 L 17.609375 -23.15625 L 17.609375 -1.171875 C 17.609375 -0.640625 17.488281 -0.3125 17.25 -0.1875 C 17.007812 -0.0625 16.8125 0 16.65625 0 L 13.5 0 C 13.363281 0 13.171875 -0.0625 12.921875 -0.1875 C 12.671875 -0.3125 12.546875 -0.640625 12.546875 -1.171875 L 12.546875 -23.15625 L 3.734375 -23.15625 C 3.578125 -23.15625 3.367188 -23.21875 3.109375 -23.34375 C 2.859375 -23.476562 2.734375 -23.828125 2.734375 -24.390625 L 2.734375 -27.0625 C 2.734375 -27.59375 2.859375 -27.921875 3.109375 -28.046875 C 3.367188 -28.171875 3.578125 -28.234375 3.734375 -28.234375 Z M 26.421875 -28.234375 "/></g></g></g><g fill="#ffffff" fill-opacity="1"><g transform="translate(265.06364, 126.627052)"><g><path d="M 21.109375 -25.046875 L 30.734375 -1.296875 C 30.867188 -0.984375 30.90625 -0.710938 30.84375 -0.484375 C 30.820312 -0.390625 30.757812 -0.28125 30.65625 -0.15625 C 30.550781 -0.03125 30.359375 0.03125 30.078125 0.03125 L 26.421875 0.03125 C 25.941406 0.03125 25.609375 -0.21875 25.421875 -0.71875 L 16.921875 -21.9375 C 16.898438 -21.976562 16.890625 -22 16.890625 -22 L 16.75 -22 C 16.75 -22 16.742188 -21.992188 16.734375 -21.984375 C 16.722656 -21.972656 16.707031 -21.941406 16.6875 -21.890625 L 12.296875 -10.796875 L 16.546875 -10.796875 C 17.023438 -10.796875 17.359375 -10.566406 17.546875 -10.109375 L 18.78125 -7.0625 C 18.894531 -6.664062 18.847656 -6.332031 18.640625 -6.0625 C 18.453125 -5.738281 18.15625 -5.578125 17.75 -5.578125 L 10.25 -5.578125 L 8.296875 -0.6875 C 8.109375 -0.207031 7.785156 0.03125 7.328125 0.03125 L 3.5625 0.03125 C 3.289062 0.03125 3.101562 -0.03125 3 -0.15625 C 2.894531 -0.28125 2.832031 -0.390625 2.8125 -0.484375 C 2.738281 -0.679688 2.757812 -0.953125 2.875 -1.296875 L 12.4375 -25.046875 C 12.894531 -26.253906 13.398438 -27.085938 13.953125 -27.546875 C 14.015625 -27.597656 14.09375 -27.65625 14.1875 -27.71875 C 14.28125 -27.789062 14.367188 -27.847656 14.453125 -27.890625 C 15.140625 -28.367188 15.929688 -28.609375 16.828125 -28.609375 C 17.765625 -28.609375 18.609375 -28.320312 19.359375 -27.75 C 20.109375 -27.175781 20.625 -26.445312 20.90625 -25.5625 C 20.945312 -25.488281 20.984375 -25.40625 21.015625 -25.3125 C 21.054688 -25.226562 21.085938 -25.140625 21.109375 -25.046875 Z M 21.109375 -25.046875 "/></g></g></g><g fill="#ffffff" fill-opacity="1"><g transform="translate(300.425331, 126.627052)"><g><path d="M 22.515625 -5.078125 C 22.671875 -5.078125 22.867188 -5.003906 23.109375 -4.859375 C 23.347656 -4.722656 23.46875 -4.394531 23.46875 -3.875 L 23.46875 -1.171875 C 23.46875 -0.640625 23.347656 -0.304688 23.109375 -0.171875 C 22.867188 -0.0351562 22.671875 0.03125 22.515625 0.03125 L 11.203125 0.03125 C 9.691406 0.03125 8.410156 -0.160156 7.359375 -0.546875 C 6.285156 -0.910156 5.394531 -1.550781 4.6875 -2.46875 C 4.03125 -3.289062 3.539062 -4.410156 3.21875 -5.828125 C 2.894531 -7.222656 2.734375 -8.851562 2.734375 -10.71875 L 2.734375 -27.03125 C 2.734375 -27.582031 2.859375 -27.921875 3.109375 -28.046875 C 3.367188 -28.171875 3.578125 -28.234375 3.734375 -28.234375 L 6.890625 -28.234375 C 7.023438 -28.234375 7.21875 -28.171875 7.46875 -28.046875 C 7.71875 -27.921875 7.84375 -27.582031 7.84375 -27.03125 L 7.84375 -10.140625 C 7.84375 -9.640625 7.851562 -9.171875 7.875 -8.734375 C 7.90625 -8.304688 7.953125 -7.921875 8.015625 -7.578125 C 8.109375 -6.953125 8.300781 -6.445312 8.59375 -6.0625 C 8.820312 -5.695312 9.15625 -5.445312 9.59375 -5.3125 C 10.050781 -5.15625 10.644531 -5.078125 11.375 -5.078125 Z M 22.515625 -5.078125 "/></g></g></g></svg>